# xmcd CD database file
#
# Track frame offsets:
#	150
#	23000
#	47535
#	68583
#	88210
#	103769
#	130233
#	147640
#	179332
#	200358
#
# Disc length: 2928 seconds
#
# Revision: 0
# Processed by: cddbd v1.5.2PL0 Copyright (c) Steve Scherf et al.
# Submitted via: CDex 1.51
#
DISCID=8b0b6e0a
DTITLE=Die Erben - Meer
DYEAR=2004
DGENRE=Jazz
TTITLE0=Vorerst Bruckner
TTITLE1=Mach Dir mal keine Sorgen
TTITLE2=Schwammerlzeit
TTITLE3=Und lass alle
TTITLE4=Menuett
TTITLE5=Meer - nicht Bach
TTITLE6=Klavier zu leise
TTITLE7=Am Sonnenfeld
TTITLE8=Reine Berechnung
TTITLE9=Bourree
EXTD=YEAR: 2004
EXTT0=
EXTT1=
EXTT2=
EXTT3=
EXTT4=
EXTT5=
EXTT6=
EXTT7=
EXTT8=
EXTT9=
PLAYORDER=
